<?xml version="1.0" standalone="no"?>
<!DOCTYPE svg PUBLIC "-//W3C//DTD SVG 20010904//EN"
 "http://www.w3.org/TR/2001/REC-SVG-20010904/DTD/svg10.dtd">
<svg version="1.0" xmlns="http://www.w3.org/2000/svg"
 width="512.000000pt" height="512.000000pt" viewBox="0 0 512.000000 512.000000"
 preserveAspectRatio="xMidYMid meet">

<g transform="translate(0.000000,512.000000) scale(0.100000,-0.100000)"
fill="#000000" stroke="none">
<path d="M2560 4621 l0 -501 501 0 501 0 -5 248 c-5 276 -12 317 -75 436 -48
91 -147 190 -238 238 -119 63 -160 70 -436 75 l-248 5 0 -501z"/>
<path d="M3558 3388 c-4 -303 -6 -340 -26 -410 -79 -285 -248 -502 -499 -640
l-73 -40 0 -114 0 -114 275 0 275 0 0 -1035 0 -1035 150 0 150 0 0 1000 c0
723 3 1000 11 1000 22 0 146 -71 217 -124 l72 -55 0 398 0 398 70 5 c133 10
242 85 299 207 l26 56 0 285 0 285 -26 56 c-37 79 -90 133 -167 171 l-67 33
-342 3 -342 3 -3 -333z"/>
<path d="M1010 2219 l0 -402 33 27 c111 89 215 144 340 180 129 38 224 46 514
46 l263 0 0 118 0 118 -57 28 c-106 52 -270 186 -320 263 l-15 23 -379 0 -379
0 0 -401z"/>
</g>
</svg>
