<?xml version="1.0" standalone="no"?>
<!DOCTYPE svg PUBLIC "-//W3C//DTD SVG 20010904//EN"
 "http://www.w3.org/TR/2001/REC-SVG-20010904/DTD/svg10.dtd">
<svg version="1.0" xmlns="http://www.w3.org/2000/svg"
 width="512.000000pt" height="512.000000pt" viewBox="0 0 512.000000 512.000000"
 preserveAspectRatio="xMidYMid meet">

<g transform="translate(0.000000,512.000000) scale(0.100000,-0.100000)"
fill="#000000" stroke="none">
<path d="M3280 4358 l0 -521 64 61 c35 34 71 62 80 62 10 0 16 9 16 23 0 19
13 26 108 57 96 32 118 35 217 35 99 -1 120 -4 205 -35 82 -29 108 -33 190
-33 81 0 109 4 190 32 52 18 121 35 153 38 l57 6 0 399 0 400 -52 -7 c-29 -4
-93 -21 -143 -38 -81 -28 -102 -31 -205 -31 -105 0 -123 3 -210 34 -82 29
-108 33 -190 33 -77 1 -109 -4 -170 -25 -41 -15 -92 -31 -112 -36 l-38 -10 0
39 0 39 -80 0 -80 0 0 -522z"/>
<path d="M1840 4202 l0 -199 240 40 240 40 240 -40 240 -40 0 199 0 198 -480
0 -480 0 0 -198z"/>
<path d="M3355 3449 l-75 -72 0 -1128 0 -1129 80 0 80 0 0 1200 c0 660 -2
1200 -5 1200 -3 0 -39 -32 -80 -71z"/>
<path d="M1920 2388 c0 -24 -70 -864 -76 -905 l-5 -43 -52 0 c-76 0 -136 -33
-164 -90 -19 -36 -23 -61 -23 -137 l0 -93 280 0 280 0 0 163 c0 156 3 180 77
630 43 257 80 467 83 467 3 0 40 -210 83 -467 74 -450 77 -474 77 -630 l0
-163 280 0 280 0 0 93 c0 76 -4 101 -22 137 -29 57 -89 90 -165 90 l-52 0 -5
43 c-6 41 -76 881 -76 905 0 9 -101 12 -400 12 -299 0 -400 -3 -400 -12z"/>
</g>
</svg>
